{
	"asset":{
		"generator":"Khronos glTF Blender I/O v3.6.27",
		"version":"2.0"
	},
	"scene":0,
	"scenes":[
		{
			"name":"Scene",
			"nodes":[
				0,
				1,
				2,
				3,
				4
			]
		}
	],
	"nodes":[
		{
			"mesh":0,
			"name":"ground_floor",
			"scale":[
				2,
				2.125,
				2
			],
			"translation":[
				0,
				1.125,
				-8.5
			]
		},
		{
			"mesh":1,
			"name":"first_floor",
			"scale":[
				2,
				1,
				4.125
			],
			"translation":[
				0,
				6.75,
				-2.125
			]
		},
		{
			"mesh":2,
			"name":"second_floor",
			"scale":[
				2,
				1,
				2
			],
			"translation":[
				0,
				9,
				0
			]
		},
		{
			"mesh":3,
			"name":"third_floor",
			"scale":[
				2,
				1,
				2
			],
			"translation":[
				8.5,
				11.25,
				0
			]
		},
		{
			"mesh":4,
			"name":"fourth_floor",
			"scale":[
				2,
				2.125,
				2
			],
			"translation":[
				0,
				16.875,
				0
			]
		}
	],
	"materials":[
		{
			"doubleSided":true,
			"name":"Material",
			"pbrMetallicRoughness":{
				"baseColorFactor":[
					0.800000011920929,
					0.800000011920929,
					0.800000011920929,
					1
				],
				"metallicFactor":0,
				"roughnessFactor":0.5
			}
		},
		{
			"doubleSided":true,
			"name":"Material.077",
			"pbrMetallicRoughness":{
				"baseColorFactor":[
					0.800000011920929,
					0.800000011920929,
					0.800000011920929,
					1
				],
				"metallicFactor":0,
				"roughnessFactor":0.5
			}
		},
		{
			"doubleSided":true,
			"name":"Material.131",
			"pbrMetallicRoughness":{
				"baseColorFactor":[
					0.800000011920929,
					0.800000011920929,
					0.800000011920929,
					1
				],
				"metallicFactor":0,
				"roughnessFactor":0.5
			}
		},
		{
			"doubleSided":true,
			"name":"Material.144",
			"pbrMetallicRoughness":{
				"baseColorFactor":[
					0.800000011920929,
					0.800000011920929,
					0.800000011920929,
					1
				],
				"metallicFactor":0,
				"roughnessFactor":0.5
			}
		},
		{
			"doubleSided":true,
			"name":"Material.149",
			"pbrMetallicRoughness":{
				"baseColorFactor":[
					0.800000011920929,
					0.800000011920929,
					0.800000011920929,
					1
				],
				"metallicFactor":0,
				"roughnessFactor":0.5
			}
		}
	],
	"meshes":[
		{
			"name":"Cube",
			"primitives":[
				{
					"attributes":{
						"POSITION":0,
						"NORMAL":1,
						"TEXCOORD_0":2
					},
					"indices":3,
					"material":0
				}
			]
		},
		{
			"name":"Cube.077",
			"primitives":[
				{
					"attributes":{
						"POSITION":4,
						"NORMAL":5,
						"TEXCOORD_0":6
					},
					"indices":7,
					"material":1
				}
			]
		},
		{
			"name":"Cube.131",
			"primitives":[
				{
					"attributes":{
						"POSITION":8,
						"NORMAL":9,
						"TEXCOORD_0":10
					},
					"indices":11,
					"material":2
				}
			]
		},
		{
			"name":"Cube.144",
			"primitives":[
				{
					"attributes":{
						"POSITION":12,
						"NORMAL":13,
						"TEXCOORD_0":14
					},
					"indices":15,
					"material":3
				}
			]
		},
		{
			"name":"Cube.149",
			"primitives":[
				{
					"attributes":{
						"POSITION":16,
						"NORMAL":17,
						"TEXCOORD_0":18
					},
					"indices":19,
					"material":4
				}
			]
		}
	],
	"accessors":[
		{
			"bufferView":0,
			"componentType":5126,
			"count":720,
			"max":[
				9.5,
				1,
				5.25
			],
			"min":[
				-1,
				-1,
				-5.25
			],
			"type":"VEC3"
		},
		{
			"bufferView":1,
			"componentType":5126,
			"count":720,
			"type":"VEC3"
		},
		{
			"bufferView":2,
			"componentType":5126,
			"count":720,
			"type":"VEC2"
		},
		{
			"bufferView":3,
			"componentType":5123,
			"count":1080,
			"type":"SCALAR"
		},
		{
			"bufferView":4,
			"componentType":5126,
			"count":792,
			"max":[
				7.375,
				1,
				1
			],
			"min":[
				-1,
				-3.25,
				-4.090909004211426
			],
			"type":"VEC3"
		},
		{
			"bufferView":5,
			"componentType":5126,
			"count":792,
			"type":"VEC3"
		},
		{
			"bufferView":6,
			"componentType":5126,
			"count":792,
			"type":"VEC2"
		},
		{
			"bufferView":7,
			"componentType":5123,
			"count":1188,
			"type":"SCALAR"
		},
		{
			"bufferView":8,
			"componentType":5126,
			"count":288,
			"max":[
				5.25,
				1,
				1
			],
			"min":[
				-1,
				-1,
				-9.5
			],
			"type":"VEC3"
		},
		{
			"bufferView":9,
			"componentType":5126,
			"count":288,
			"type":"VEC3"
		},
		{
			"bufferView":10,
			"componentType":5126,
			"count":288,
			"type":"VEC2"
		},
		{
			"bufferView":11,
			"componentType":5123,
			"count":432,
			"type":"SCALAR"
		},
		{
			"bufferView":12,
			"componentType":5126,
			"count":384,
			"max":[
				1,
				3.25,
				1
			],
			"min":[
				-5.25,
				-1,
				-5.25
			],
			"type":"VEC3"
		},
		{
			"bufferView":13,
			"componentType":5126,
			"count":384,
			"type":"VEC3"
		},
		{
			"bufferView":14,
			"componentType":5126,
			"count":384,
			"type":"VEC2"
		},
		{
			"bufferView":15,
			"componentType":5123,
			"count":576,
			"type":"SCALAR"
		},
		{
			"bufferView":16,
			"componentType":5126,
			"count":96,
			"max":[
				3.125,
				1,
				1
			],
			"min":[
				-1,
				-1,
				-3.125
			],
			"type":"VEC3"
		},
		{
			"bufferView":17,
			"componentType":5126,
			"count":96,
			"type":"VEC3"
		},
		{
			"bufferView":18,
			"componentType":5126,
			"count":96,
			"type":"VEC2"
		},
		{
			"bufferView":19,
			"componentType":5123,
			"count":144,
			"type":"SCALAR"
		}
	],
	"bufferViews":[
		{
			"buffer":0,
			"byteLength":8640,
			"byteOffset":0,
			"target":34962
		},
		{
			"buffer":0,
			"byteLength":8640,
			"byteOffset":8640,
			"target":34962
		},
		{
			"buffer":0,
			"byteLength":5760,
			"byteOffset":17280,
			"target":34962
		},
		{
			"buffer":0,
			"byteLength":2160,
			"byteOffset":23040,
			"target":34963
		},
		{
			"buffer":0,
			"byteLength":9504,
			"byteOffset":25200,
			"target":34962
		},
		{
			"buffer":0,
			"byteLength":9504,
			"byteOffset":34704,
			"target":34962
		},
		{
			"buffer":0,
			"byteLength":6336,
			"byteOffset":44208,
			"target":34962
		},
		{
			"buffer":0,
			"byteLength":2376,
			"byteOffset":50544,
			"target":34963
		},
		{
			"buffer":0,
			"byteLength":3456,
			"byteOffset":52920,
			"target":34962
		},
		{
			"buffer":0,
			"byteLength":3456,
			"byteOffset":56376,
			"target":34962
		},
		{
			"buffer":0,
			"byteLength":2304,
			"byteOffset":59832,
			"target":34962
		},
		{
			"buffer":0,
			"byteLength":864,
			"byteOffset":62136,
			"target":34963
		},
		{
			"buffer":0,
			"byteLength":4608,
			"byteOffset":63000,
			"target":34962
		},
		{
			"buffer":0,
			"byteLength":4608,
			"byteOffset":67608,
			"target":34962
		},
		{
			"buffer":0,
			"byteLength":3072,
			"byteOffset":72216,
			"target":34962
		},
		{
			"buffer":0,
			"byteLength":1152,
			"byteOffset":75288,
			"target":34963
		},
		{
			"buffer":0,
			"byteLength":1152,
			"byteOffset":76440,
			"target":34962
		},
		{
			"buffer":0,
			"byteLength":1152,
			"byteOffset":77592,
			"target":34962
		},
		{
			"buffer":0,
			"byteLength":768,
			"byteOffset":78744,
			"target":34962
		},
		{
			"buffer":0,
			"byteLength":288,
			"byteOffset":79512,
			"target":34963
		}
	],
	"buffers":[
		{
			"byteLength":79800,
			"uri":"data:application/octet-stream;base64,"
		}
	]
}
